<svg width="256" height="256" viewBox="0 0 256 256" xmlns="http://www.w3.org/2000/svg">
  <defs>
    <linearGradient id="bg" x1="0" y1="0" x2="0.4" y2="1">
      <stop offset="0" stop-color="#FF9147"/>
      <stop offset="1" stop-color="#EF4C1B"/>
    </linearGradient>
    <linearGradient id="img" x1="0" y1="0" x2="1" y2="1">
      <stop offset="0" stop-color="#FFC79A"/>
      <stop offset="1" stop-color="#FF9451"/>
    </linearGradient>
  </defs>

  <rect width="256" height="256" rx="54" fill="url(#bg)"/>

  <!-- stacked card behind (implies a feed of many posts) -->
  <rect x="92" y="50" width="112" height="150" rx="16" fill="#ffffff" opacity="0.32"/>

  <!-- soft shadow for the front card -->
  <rect x="52" y="70" width="116" height="150" rx="16" fill="#7a2100" opacity="0.20"/>
  <!-- front post card -->
  <rect x="50" y="64" width="116" height="150" rx="16" fill="#ffffff"/>

  <!-- image thumbnail -->
  <rect x="66" y="80" width="84" height="60" rx="9" fill="url(#img)"/>
  <circle cx="86" cy="102" r="8" fill="#ffffff" opacity="0.85"/>
  <path d="M70 134 L96 110 L112 126 L128 112 L146 134 Z" fill="#ffffff" opacity="0.85"/>

  <!-- title / text lines -->
  <rect x="66" y="156" width="84" height="12" rx="6" fill="#EF4C1B" opacity="0.85"/>
  <rect x="66" y="176" width="66" height="10" rx="5" fill="#0f0f0f" opacity="0.18"/>
  <rect x="66" y="192" width="52" height="10" rx="5" fill="#0f0f0f" opacity="0.18"/>
</svg>
